<?xml version="1.0" encoding="utf-8"?>
<svg width="609px" height="98px" viewBox="0 0 609 98" version="1.1" xmlns:xlink="http://www.w3.org/1999/xlink" xmlns="http://www.w3.org/2000/svg">
  <desc>Created with Lunacy</desc>
  <defs>
    <filter filterUnits="userSpaceOnUse" color-interpolation-filters="sRGB" id="filter_1">
      <feFlood flood-opacity="0" result="BackgroundImageFix" />
      <feColorMatrix in="SourceAlpha" type="matrix" values="0 0 0 0 0 0 0 0 0 0 0 0 0 0 0 0 0 0 127 0" />
      <feOffset dx="4" dy="4" />
      <feGaussianBlur stdDeviation="2" />
      <feColorMatrix type="matrix" values="0 0 0 0 0 0 0 0 0 0 0 0 0 0 0 0 0 0 0.2705882 0" />
      <feBlend mode="normal" in2="BackgroundImageFix" result="effect0_dropShadow" />
      <feBlend mode="normal" in="SourceGraphic" in2="effect0_dropShadow" result="shape" />
    </filter>
  </defs>
  <g filter="url(#filter_1)">
    <path d="M41 0L552 0Q553.05 0 554.093 0.0477958Q555.136 0.0955915 556.17 0.191086Q557.204 0.28658 558.227 0.429577Q559.25 0.572574 560.259 0.762783Q561.268 0.952993 562.262 1.19003Q563.256 1.42706 564.232 1.71043Q565.209 1.9938 566.166 2.32294Q567.123 2.65207 568.058 3.0263Q568.994 3.40052 569.906 3.81908Q570.818 4.23763 571.706 4.69966Q572.593 5.16168 573.453 5.66624Q574.313 6.17079 575.144 6.71685Q575.976 7.26291 576.776 7.84935Q577.577 8.4358 578.346 9.06144Q579.115 9.68707 579.85 10.3506Q580.586 11.0142 581.286 11.7143Q581.986 12.4144 582.65 13.1496Q583.313 13.8849 583.939 14.6538Q584.564 15.4226 585.151 16.2236Q585.737 17.0245 586.283 17.8559Q586.829 18.6873 587.334 19.5474Q587.838 20.4075 588.3 21.2946Q588.762 22.1817 589.181 23.0939Q589.6 24.0062 589.974 24.9417Q590.348 25.8773 590.677 26.8343Q591.006 27.7912 591.29 28.7676Q591.573 29.744 591.81 30.7379Q592.047 31.7318 592.237 32.7411Q592.427 33.7504 592.57 34.773Q592.713 35.7957 592.809 36.8296Q592.904 37.8636 592.952 38.9067Q593 39.9498 593 41L593 41Q593 42.0502 592.952 43.0933Q592.904 44.1364 592.809 45.1704Q592.713 46.2043 592.57 47.227Q592.427 48.2496 592.237 49.2589Q592.047 50.2682 591.81 51.2621Q591.573 52.256 591.29 53.2324Q591.006 54.2088 590.677 55.1658Q590.348 56.1227 589.974 57.0583Q589.6 57.9939 589.181 58.9061Q588.762 59.8184 588.3 60.7054Q587.838 61.5925 587.334 62.4526Q586.829 63.3127 586.283 64.1441Q585.737 64.9755 585.151 65.7764Q584.564 66.5774 583.939 67.3462Q583.313 68.1151 582.65 68.8504Q581.986 69.5856 581.286 70.2857Q580.586 70.9858 579.85 71.6494Q579.115 72.3129 578.346 72.9386Q577.577 73.5642 576.776 74.1507Q575.976 74.7371 575.144 75.2831Q574.313 75.8292 573.453 76.3338Q572.593 76.8383 571.706 77.3003Q570.818 77.7624 569.906 78.1809Q568.994 78.5995 568.058 78.9737Q567.123 79.3479 566.166 79.6771Q565.209 80.0062 564.232 80.2896Q563.256 80.5729 562.262 80.81Q561.268 81.047 560.259 81.2372Q559.25 81.4274 558.227 81.5704Q557.204 81.7134 556.17 81.8089Q555.136 81.9044 554.093 81.9522Q553.05 82 552 82L41 82Q39.9498 82 38.9067 81.9522Q37.8636 81.9044 36.8296 81.8089Q35.7957 81.7134 34.773 81.5704Q33.7504 81.4274 32.7411 81.2372Q31.7318 81.047 30.7379 80.81Q29.744 80.5729 28.7676 80.2896Q27.7912 80.0062 26.8342 79.6771Q25.8773 79.3479 24.9417 78.9737Q24.0062 78.5995 23.0939 78.1809Q22.1816 77.7624 21.2946 77.3004Q20.4075 76.8383 19.5474 76.3338Q18.6873 75.8292 17.8559 75.2832Q17.0245 74.7371 16.2236 74.1507Q15.4226 73.5642 14.6538 72.9386Q13.8849 72.3129 13.1496 71.6494Q12.4144 70.9858 11.7143 70.2857Q11.0142 69.5856 10.3506 68.8504Q9.68707 68.1151 9.06144 67.3462Q8.4358 66.5774 7.84936 65.7764Q7.26291 64.9755 6.71685 64.1441Q6.17079 63.3127 5.66624 62.4526Q5.16168 61.5925 4.69966 60.7054Q4.23763 59.8184 3.81908 58.9061Q3.40052 57.9939 3.0263 57.0583Q2.65207 56.1227 2.32294 55.1658Q1.9938 54.2088 1.71043 53.2324Q1.42706 52.256 1.19003 51.2621Q0.952993 50.2682 0.762783 49.2589Q0.572574 48.2496 0.429577 47.227Q0.28658 46.2043 0.191086 45.1704Q0.0955915 44.1364 0.0477958 43.0933Q0 42.0502 0 41L0 41Q0 39.9498 0.0477958 38.9067Q0.0955915 37.8636 0.191086 36.8296Q0.28658 35.7957 0.429577 34.773Q0.572574 33.7504 0.762783 32.7411Q0.952993 31.7318 1.19003 30.7379Q1.42706 29.744 1.71043 28.7676Q1.9938 27.7912 2.32294 26.8342Q2.65207 25.8773 3.0263 24.9417Q3.40052 24.0062 3.81908 23.0939Q4.23763 22.1816 4.69966 21.2946Q5.16168 20.4075 5.66624 19.5474Q6.17079 18.6873 6.71685 17.8559Q7.26291 17.0245 7.84935 16.2236Q8.4358 15.4226 9.06144 14.6538Q9.68707 13.8849 10.3506 13.1496Q11.0142 12.4144 11.7143 11.7143Q12.4144 11.0142 13.1496 10.3506Q13.8849 9.68707 14.6538 9.06144Q15.4226 8.4358 16.2236 7.84936Q17.0245 7.26291 17.8559 6.71685Q18.6873 6.17079 19.5474 5.66624Q20.4075 5.16168 21.2946 4.69966Q22.1817 4.23763 23.0939 3.81908Q24.0062 3.40052 24.9417 3.0263Q25.8773 2.65207 26.8343 2.32294Q27.7912 1.9938 28.7676 1.71043Q29.744 1.42706 30.7379 1.19003Q31.7318 0.952993 32.7411 0.762783Q33.7504 0.572574 34.773 0.429577Q35.7957 0.28658 36.8296 0.191086Q37.8636 0.0955915 38.9067 0.0477958Q39.9498 0 41 0Z" transform="translate(4 4)" id="Rectangle" fill="#FC4850" fill-opacity="0.929411769" stroke="none" />
  </g>
</svg>