<?xml version="1.0" encoding="utf-8"?>
<svg width="232px" height="84px" viewBox="0 0 232 84" version="1.1" xmlns:xlink="http://www.w3.org/1999/xlink" xmlns="http://www.w3.org/2000/svg">
  <desc>Created with Lunacy</desc>
  <g id="text_logo">
    <g id="متجر" fill="#0D8ED0" transform="translate(99.19287 0)">
      <path d="M45.9558 32.958Q45.7148 33.5317 45.7148 34.1743Q45.7148 34.8169 45.9558 35.3906Q46.1968 35.9644 46.6328 36.3889Q47.0688 36.8135 47.6311 37.0659Q48.1934 37.3184 48.8589 37.3184Q49.5015 37.3184 50.0637 37.0659Q50.626 36.8135 51.0505 36.3889Q51.4751 35.9644 51.7275 35.3906Q51.98 34.8169 51.98 34.1743Q51.98 33.5317 51.7275 32.958Q51.4751 32.3843 51.0505 31.9482Q50.626 31.5122 50.0637 31.2712Q49.5015 31.0303 48.8589 31.0303Q48.1934 31.0303 47.6311 31.2712Q47.0688 31.5122 46.6328 31.9482Q46.1968 32.3843 45.9558 32.958ZM53.7585 32.958Q53.5176 33.5317 53.5176 34.1743Q53.5176 34.8169 53.7585 35.3906Q53.9995 35.9644 54.4241 36.3889Q54.8486 36.8135 55.4109 37.0659Q55.9731 37.3184 56.6387 37.3184Q57.2813 37.3184 57.855 37.0659Q58.4287 36.8135 58.8533 36.3889Q59.2778 35.9644 59.5303 35.3906Q59.7827 34.8169 59.7827 34.1743Q59.7827 33.5317 59.5303 32.958Q59.2778 32.3843 58.8533 31.9482Q58.4287 31.5122 57.855 31.2712Q57.2813 31.0303 56.6387 31.0303Q55.9731 31.0303 55.4109 31.2712Q54.8486 31.5122 54.4241 31.9482Q53.9995 32.3843 53.7585 32.958ZM9.95996 45.4653Q8.8125 47.8291 8.42236 51.019Q6.35693 51.96 4.92261 53.0845Q3.48828 54.209 2.59326 55.7695Q1.69824 57.3301 1.30811 59.4529Q0.917969 61.5757 0.917969 64.5132L0.917969 68.9424L7.25195 68.9424L7.25195 64.605Q7.25195 62.6772 7.51587 61.3118Q7.77979 59.9463 8.29614 59.0054Q8.8125 58.0645 9.5813 57.4678Q10.3501 56.8711 11.3599 56.481Q13.7695 58.1104 15.9382 58.73Q18.1069 59.3496 20.0347 59.3496Q22.2148 59.3496 24.0164 58.6267Q25.8179 57.9038 27.103 56.5728Q28.3882 55.2417 29.0996 53.3599Q29.811 51.478 29.811 49.1372Q29.811 46.7964 29.0996 44.8342Q28.3882 42.8721 27.0801 41.4492Q25.772 40.0264 23.9475 39.2231Q22.123 38.4199 19.897 38.4199Q18.061 38.4199 16.1907 39.2002Q14.3203 39.9805 12.7139 41.541Q11.1074 43.1016 9.95996 45.4653ZM75.4111 60.5659Q75.4111 58.4087 76.2258 56.9858Q77.0405 55.563 78.406 54.7253Q79.7715 53.8877 81.5386 53.5549Q83.3057 53.2222 85.2334 53.2222L95.4688 53.2222L95.4688 52.5796Q95.4688 48.6323 93.3345 46.5095Q91.2002 44.3867 86.8169 44.3867Q86.5415 44.3867 85.9678 44.4441Q85.394 44.5015 84.6367 44.6162Q83.8794 44.731 83.0073 44.9031Q82.1353 45.0752 81.2402 45.3276L81.2402 39.7051Q81.814 39.4985 82.6057 39.269Q83.3975 39.0396 84.304 38.856Q85.2104 38.6724 86.1743 38.5461Q87.1382 38.4199 88.0332 38.4199Q91.8887 38.4199 94.5278 39.6592Q97.167 40.8984 98.7849 42.9753Q100.403 45.0522 101.114 47.7603Q101.826 50.4683 101.826 53.4058L101.826 58.7759L84.9121 58.7759C84.3154 58.7759 83.822 58.8371 83.4319 58.9595Q82.8467 59.1431 82.5024 59.4414Q82.1582 59.7397 82.009 60.1299Q81.8599 60.52 81.8599 60.9102Q81.8599 61.5757 82.3762 62.1838Q82.8926 62.792 83.7302 63.3542Q84.5679 63.9165 85.6235 64.4329Q86.6792 64.9492 87.7349 65.4082L84.9121 70.6865Q82.9614 69.9292 81.2402 68.9424Q79.519 67.9556 78.2224 66.7163Q76.9258 65.4771 76.1685 63.9509Q75.4111 62.4248 75.4111 60.5659ZM43.0757 58.7759L72.0376 58.7759L72.0376 39.4985L65.7036 39.4985L65.7036 53.2222L44.8657 53.2222Q43.2363 53.2222 42.1692 53.0959Q41.1021 52.9697 40.4824 52.6255Q39.8628 52.2813 39.6104 51.696Q39.3579 51.1108 39.3579 50.2158L39.3579 43.1245L33.0239 43.1245L33.0239 51.1108Q33.0239 53.1992 33.5173 54.6565Q34.0107 56.1138 35.1812 57.0317Q36.3516 57.9497 38.2793 58.3628Q40.207 58.7759 43.0757 58.7759ZM106.117 63.0674L104.786 63.0674L104.786 68.9424L106.278 68.9424Q109.032 68.9424 111.028 68.2998Q113.025 67.6572 114.333 66.2458Q115.641 64.8345 116.261 62.5854Q116.88 60.3364 116.88 57.1006L116.88 39.4985L110.546 39.4985L110.546 57.0088Q110.546 58.9136 110.305 60.1069Q110.064 61.3003 109.537 61.9543Q109.009 62.6084 108.16 62.8379Q107.311 63.0674 106.117 63.0674ZM23.282 47.3586Q23.477 48.2192 23.4771 48.9995Q23.477 50.4453 23.1099 51.3403Q22.7427 52.2354 22.146 52.7288Q21.5493 53.2222 20.792 53.3943Q20.0347 53.5664 19.2544 53.5664Q18.0151 53.5664 16.8103 53.1418Q15.6055 52.7173 14.5728 52.0518Q14.7104 50.1699 15.1924 48.6782Q15.6743 47.1865 16.3972 46.1768Q17.1201 45.167 18.0037 44.6277Q18.8872 44.0884 19.8281 44.0884Q20.8149 44.0884 21.5149 44.5703Q22.2148 45.0522 22.6509 45.7751Q23.0869 46.498 23.282 47.3586ZM89.9839 65.7295Q89.9839 65.0869 90.2249 64.5132Q90.4658 63.9395 90.8904 63.5034Q91.3149 63.0674 91.8772 62.8264Q92.4395 62.5854 93.105 62.5854Q93.7476 62.5854 94.3213 62.8264Q94.895 63.0674 95.3196 63.5034Q95.7441 63.9395 95.9966 64.5132Q96.249 65.0869 96.249 65.7295Q96.249 66.3721 95.9966 66.9458Q95.7441 67.5195 95.3196 67.9441Q94.895 68.3687 94.3213 68.6211Q93.7476 68.8735 93.105 68.8735Q92.4395 68.8735 91.8772 68.6211Q91.3149 68.3687 90.8904 67.9441Q90.4658 67.5195 90.2249 66.9458Q89.9839 66.3721 89.9839 65.7295Z" />
    </g>
    <g id="أوكي" fill="#C70B1D" fill-opacity="0.8117647">
      <path d="M1.83594 28.2764L10.396 28.2764L10.396 25.293L8.07813 25.293Q7.02246 25.293 6.65527 24.8799Q6.28809 24.4668 6.28809 23.8701Q6.28809 23.2505 6.6438 22.8718Q6.99951 22.4932 7.87158 22.4932Q8.07813 22.4932 8.49121 22.5505Q8.9043 22.6079 9.47803 22.7227L9.47803 19.8311Q9.01904 19.6704 8.46826 19.5442Q7.91748 19.418 7.18311 19.418Q6.42578 19.418 5.71436 19.6819Q5.00293 19.9458 4.44067 20.4507Q3.87842 20.9556 3.53418 21.7129Q3.18994 22.4702 3.18994 23.457Q3.18994 23.8472 3.29321 24.3979Q3.39648 24.9487 3.60303 25.293L1.83594 25.293L1.83594 28.2764ZM76.375 58.7759L47.4131 58.7759Q44.5444 58.7759 42.6167 58.3628Q40.689 57.9497 39.5186 57.0317Q38.3481 56.1138 37.8547 54.6565Q37.3613 53.1992 37.3613 51.1108L37.3613 43.1245L43.6953 43.1245L43.6953 50.2617Q43.6953 51.1797 43.9478 51.7534Q44.2002 52.3271 44.8198 52.6599Q45.4395 52.9927 46.5066 53.1074Q47.5737 53.2222 49.2031 53.2222L70.041 53.2222L70.041 25.9585L76.375 25.9585L76.375 58.7759ZM9.24854 58.7759L9.24854 30.3647L2.91455 30.3647L2.91455 58.7759L9.24854 58.7759ZM87.0005 54.1975Q86.4956 52.9697 86.4956 51.5928L86.4956 46.7734L80.1616 46.7734L80.1616 51.9141Q80.1616 54.4614 81.114 56.6416Q82.0664 58.8218 84.0974 60.4397Q86.1284 62.0576 89.2954 62.9756Q92.4624 63.8936 96.8916 63.8936Q101.872 63.8936 105.222 63.033Q108.573 62.1724 110.581 60.7266Q112.589 59.2808 113.438 57.3875Q114.287 55.4941 114.287 53.4287Q114.287 52.2813 113.885 51.4092Q113.484 50.5371 112.841 49.8831Q112.199 49.229 111.373 48.7471Q110.546 48.2651 109.674 47.8635Q108.802 47.4619 107.976 47.0833Q107.15 46.7046 106.507 46.2915Q105.865 45.8784 105.463 45.3735Q105.062 44.8687 105.062 44.1802Q105.062 43.5835 105.348 42.9868Q105.635 42.3901 106.243 41.9197Q106.852 41.4492 107.77 41.1509Q108.688 40.8525 109.95 40.8525Q110.615 40.8525 111.843 40.9673Q113.071 41.082 114.792 41.4722L114.792 35.8267Q114.448 35.689 113.92 35.5054Q113.392 35.3218 112.727 35.1726Q112.061 35.0234 111.269 34.9087Q110.478 34.7939 109.583 34.7939Q106.852 34.7939 104.821 35.7004Q102.79 36.6069 101.447 38.0527Q100.104 39.4985 99.439 41.3Q98.7734 43.1016 98.7734 44.8916Q98.7734 46.2686 99.1636 47.2668Q99.5537 48.2651 100.185 48.9995Q100.816 49.7339 101.631 50.2502Q102.445 50.7666 103.306 51.1797Q104.167 51.5928 104.981 51.937Q105.796 52.2813 106.427 52.6714Q107.058 53.0615 107.448 53.532Q107.838 54.0024 107.838 54.668Q107.838 55.3794 107.46 56.0334Q107.081 56.6875 105.911 57.2039Q104.74 57.7202 102.572 58.03Q100.403 58.3398 96.8457 58.3398Q93.8853 58.3398 91.9001 57.8005Q89.915 57.2612 88.7102 56.3433Q87.5054 55.4253 87.0005 54.1975ZM62.2612 44.731L52.8291 44.731L52.8291 41.3345L54.8027 41.3345Q54.665 41.1738 54.5847 40.9214Q54.5044 40.6689 54.4585 40.3936Q54.4126 40.1182 54.3896 39.8428Q54.3667 39.5674 54.3667 39.3608Q54.3667 38.2593 54.7454 37.4102Q55.124 36.561 55.7322 35.9988Q56.3403 35.4365 57.1321 35.1497Q57.9238 34.8628 58.75 34.8628Q59.5532 34.8628 60.1843 35.0005Q60.8154 35.1382 61.2744 35.3218L61.2744 38.5117Q60.0352 38.2363 59.5073 38.2363Q58.5435 38.2363 58.1533 38.6953Q57.7632 39.1543 57.7632 39.751Q57.7632 40.4165 58.1648 40.8755Q58.5664 41.3345 59.7368 41.3345L62.2612 41.3345L62.2612 44.731ZM33.219 61.438Q33.9189 59.0054 33.9189 55.8613L33.9189 49.8027Q33.9189 47.4619 33.437 45.3965Q32.9551 43.3311 31.842 41.782Q30.729 40.2329 28.9045 39.3264Q27.0801 38.4199 24.418 38.4199Q22.0083 38.4199 20.1609 39.3149Q18.3135 40.21 17.0742 41.7017Q15.835 43.1934 15.1924 45.144Q14.5498 47.0947 14.5498 49.2061Q14.5498 51.6616 15.2612 53.4517Q15.9727 55.2417 17.2119 56.4351Q18.4512 57.6284 20.1379 58.2021Q21.8247 58.7759 23.7754 58.7759Q25.8408 58.7759 27.3325 58.3628Q27.1719 59.2349 26.8506 60.0725Q26.5293 60.9102 25.8064 61.5757Q25.0835 62.2412 23.8213 62.6543Q22.5591 63.0674 20.5166 63.0674L16.9136 63.0674L16.9136 68.9424L20.9067 68.9424Q24.4639 68.9424 26.9424 68.0703Q29.4209 67.1982 30.97 65.5344Q32.519 63.8706 33.219 61.438ZM21.6755 52.1895Q20.769 51.019 20.769 48.9995Q20.769 47.8979 20.9641 46.98Q21.1592 46.062 21.5723 45.4194Q21.9854 44.7769 22.6394 44.4211Q23.2935 44.0654 24.2344 44.0654Q25.1753 44.0654 25.8179 44.4441Q26.4604 44.8228 26.8506 45.5227Q27.2407 46.2227 27.4128 47.2209Q27.585 48.2192 27.585 49.4585L27.585 52.6714Q26.3687 53.3599 24.3721 53.3599Q22.582 53.3599 21.6755 52.1895ZM91.5789 68.6211Q91.3379 69.1948 91.3379 69.8374Q91.3379 70.48 91.5789 71.0537Q91.8198 71.6274 92.2559 72.052Q92.6919 72.4766 93.2542 72.729Q93.8164 72.9814 94.4819 72.9814Q95.1245 72.9814 95.6868 72.729Q96.249 72.4766 96.6736 72.052Q97.0981 71.6274 97.3506 71.0537Q97.603 70.48 97.603 69.8374Q97.603 69.1948 97.3506 68.6211Q97.0981 68.0474 96.6736 67.6113Q96.249 67.1753 95.6868 66.9343Q95.1245 66.6934 94.4819 66.6934Q93.8164 66.6934 93.2542 66.9343Q92.6919 67.1753 92.2559 67.6113Q91.8198 68.0474 91.5789 68.6211ZM99.3816 68.6211Q99.1406 69.1948 99.1406 69.8374Q99.1406 70.48 99.3816 71.0537Q99.6226 71.6274 100.047 72.052Q100.472 72.4766 101.034 72.729Q101.596 72.9814 102.262 72.9814Q102.904 72.9814 103.478 72.729Q104.052 72.4766 104.476 72.052Q104.901 71.6274 105.153 71.0537Q105.406 70.48 105.406 69.8374Q105.406 69.1948 105.153 68.6211Q104.901 68.0474 104.476 67.6113Q104.052 67.1753 103.478 66.9343Q102.904 66.6934 102.262 66.6934Q101.596 66.6934 101.034 66.9343Q100.472 67.1753 100.047 67.6113Q99.6226 68.0474 99.3816 68.6211Z" />
    </g>
  </g>
</svg>